<svg width="32" height="32" viewBox="0 0 32 32" fill="none" xmlns="http://www.w3.org/2000/svg">
<path d="M28.8 15.9997C28.8 23.069 23.0693 28.7997 16 28.7997C8.9308 28.7997 3.20005 23.069 3.20005 15.9997C3.20005 14.9393 4.05966 14.0797 5.12005 14.0797C6.18043 14.0797 7.04005 14.9393 7.04005 15.9997C7.04005 20.9482 11.0516 24.9597 16 24.9597C20.9485 24.9597 24.96 20.9482 24.96 15.9997C24.96 13.2987 23.7602 10.7977 21.7216 9.104C20.1243 7.77693 18.1214 7.03971 16 7.03971C14.9397 7.03971 14.08 6.18009 14.08 5.11971C14.08 4.05932 14.9397 3.19971 16 3.19971C19.0262 3.19971 21.895 4.25569 24.1755 6.15042C27.0831 8.56614 28.8 12.1448 28.8 15.9997Z" fill="black" fill-opacity="0.1"/>
</svg>
