<svg width="24" height="24" viewBox="0 0 24 24" fill="none" xmlns="http://www.w3.org/2000/svg">
<path d="M8.13807 7.19526C7.87772 6.93491 7.45561 6.93491 7.19526 7.19526C6.93491 7.45561 6.93491 7.87772 7.19526 8.13807L11.3905 12.3333L7.19526 16.5286C6.93491 16.7889 6.93491 17.2111 7.19526 17.4714C7.45561 17.7318 7.87772 17.7318 8.13807 17.4714L12.3333 13.2761L16.5286 17.4714C16.7889 17.7318 17.2111 17.7318 17.4714 17.4714C17.7318 17.2111 17.7318 16.7889 17.4714 16.5286L13.2761 12.3333L17.4714 8.13807C17.7318 7.87772 17.7318 7.45561 17.4714 7.19526C17.2111 6.93491 16.7889 6.93491 16.5286 7.19526L12.3333 11.3905L8.13807 7.19526Z" fill="#888888"/>
</svg>
