<svg width="24" height="24" viewBox="0 0 24 24" fill="none" xmlns="http://www.w3.org/2000/svg">
<path fill-rule="evenodd" clip-rule="evenodd" d="M15.1349 16.3134C13.9288 17.2653 12.4058 17.8334 10.7501 17.8334C6.83806 17.8334 3.66675 14.6621 3.66675 10.7501C3.66675 6.83806 6.83806 3.66675 10.7501 3.66675C14.6621 3.66675 17.8334 6.83806 17.8334 10.7501C17.8334 12.4058 17.2653 13.9288 16.3134 15.1349L20.0893 18.9108C20.4148 19.2363 20.4148 19.7639 20.0893 20.0893C19.7639 20.4148 19.2363 20.4148 18.9108 20.0893L15.1349 16.3134ZM16.1667 10.7501C16.1667 13.7416 13.7416 16.1667 10.7501 16.1667C7.75854 16.1667 5.33341 13.7416 5.33341 10.7501C5.33341 7.75854 7.75854 5.33341 10.7501 5.33341C13.7416 5.33341 16.1667 7.75854 16.1667 10.7501Z" fill="#222222"/>
</svg>
